<svg width="1136.2" height="800" xmlns="http://www.w3.org/2000/svg" version="1.1" xml:space="preserve">
 <g>
  <title>Layer 1</title>
  <g id="svg_1">
   <polygon class="st0" points="-110.1,63.6 -110.1,-63.6 0,-127.2 110.1,-63.6 110.1,63.6 0,127.2  " fill="#ffffff" id="svg_2"/>
   <path fill="#ffffff" d="m0,-126.6l109.6,63.3l0,126.6l-109.6,63.3l-109.6,-63.3l0,-126.6l109.6,-63.3m0,-1.1l-110.6,63.9l0,127.7l110.6,63.8l110.6,-63.9l0,-127.7l-110.6,-63.8l0,0z" id="svg_3"/>
  </g>
  <g id="svg_4">
   <polygon class="st0" points="117.1,63.6 117.1,-63.6 227.2,-127.2 337.4,-63.6 337.4,63.6 227.2,127.2  " fill="#ffffff" id="svg_5"/>
   <path fill="#ffffff" d="m227.2,-126.6l109.6,63.3l0,126.6l-109.6,63.3l-109.6,-63.3l0,-126.6l109.6,-63.3m0,-1.1l-110.6,63.8l0,127.8l110.6,63.9l110.6,-63.9l0,-127.8l-110.6,-63.8l0,0z" id="svg_6"/>
  </g>
  <g id="svg_7">
   <polygon class="st0" points="344.4,63.6 344.4,-63.6 454.5,-127.2 564.6,-63.6 564.6,63.6 454.5,127.2  " fill="#ffffff" id="svg_8"/>
   <path fill="#ffffff" d="m454.5,-126.6l109.6,63.3l0,126.6l-109.6,63.3l-109.6,-63.3l0,-126.6l109.6,-63.3m0,-1.1l-110.6,63.8l0,127.8l110.6,63.9l110.6,-63.9l0,-127.8l-110.6,-63.8l0,0z" id="svg_9"/>
  </g>
  <g id="svg_10">
   <polygon class="st0" points="571.6,63.6 571.6,-63.6 681.7,-127.2 791.8,-63.6 791.8,63.6 681.7,127.2  " fill="#ffffff" id="svg_11"/>
   <path fill="#ffffff" d="m681.7,-126.6l109.6,63.3l0,126.6l-109.6,63.3l-109.6,-63.3l0,-126.6l109.6,-63.3m0,-1.1l-110.6,63.8l0,127.8l110.6,63.9l110.6,-63.9l0,-127.8l-110.6,-63.8l0,0z" id="svg_12"/>
  </g>
  <g id="svg_13">
   <polygon class="st0" points="798.8,63.6 798.8,-63.6 908.9,-127.2 1019.1,-63.6 1019.1,63.6 908.9,127.2  " fill="#ffffff" id="svg_14"/>
   <path fill="#ffffff" d="m908.9,-126.6l109.6,63.3l0,126.6l-109.6,63.3l-109.6,-63.3l0,-126.6l109.6,-63.3m0,-1.1l-110.6,63.8l0,127.8l110.6,63.9l110.6,-63.9l0,-127.8l-110.6,-63.8l0,0z" id="svg_15"/>
  </g>
  <g id="svg_16">
   <polygon class="st0" points="1026.1,63.6 1026.1,-63.6 1136.2,-127.2 1246.3,-63.6 1246.3,63.6 1136.2,127.2  " fill="#ffffff" id="svg_17"/>
   <path fill="#ffffff" d="m1136.2,-126.6l109.6,63.3l0,126.6l-109.6,63.3l-109.6,-63.3l0,-126.6l109.6,-63.3m0,-1.1l-110.6,63.9l0,127.7l110.6,63.9l110.6,-63.9l0,-127.8l-110.6,-63.8l0,0z" id="svg_18"/>
  </g>
  <g fill="#1A1A1A" id="svg_19">
   <polygon class="st0" points="-110.1,463.6 -110.1,336.4 0,272.8 110.1,336.4 110.1,463.6 0,527.2  " fill="#ffffff" id="svg_20"/>
   <path fill="#ffffff" d="m0,273.4l109.6,63.3l0,126.6l-109.6,63.3l-109.6,-63.3l0,-126.6l109.6,-63.3m0,-1.1l-110.6,63.9l0,127.7l110.6,63.8l110.6,-63.9l0,-127.7l-110.6,-63.8l0,0z" id="svg_21"/>
  </g>
  <g id="svg_22">
   <polygon class="st0" points="117.1,463.6 117.1,336.4 227.2,272.8 337.4,336.4 337.4,463.6 227.2,527.2  " fill="#ffffff" id="svg_23"/>
   <path fill="#ffffff" d="m227.2,273.4l109.6,63.3l0,126.6l-109.6,63.3l-109.6,-63.3l0,-126.6l109.6,-63.3m0,-1.1l-110.6,63.9l0,127.7l110.6,63.9l110.6,-63.9l0,-127.8l-110.6,-63.8l0,0z" id="svg_24"/>
  </g>
  <g id="svg_25">
   <polygon class="st0" points="344.4,463.6 344.4,336.4 454.5,272.8 564.6,336.4 564.6,463.6 454.5,527.2  " fill="#ffffff" id="svg_26"/>
   <path fill="#ffffff" d="m454.5,273.4l109.6,63.3l0,126.6l-109.6,63.3l-109.6,-63.3l0,-126.6l109.6,-63.3m0,-1.1l-110.6,63.9l0,127.7l110.6,63.9l110.6,-63.9l0,-127.8l-110.6,-63.8l0,0z" id="svg_27"/>
  </g>
  <g id="svg_28">
   <polygon class="st0" points="571.6,463.6 571.6,336.4 681.7,272.8 791.8,336.4 791.8,463.6 681.7,527.2  " fill="#ffffff" id="svg_29"/>
   <path fill="#ffffff" d="m681.7,273.4l109.6,63.3l0,126.6l-109.6,63.3l-109.6,-63.3l0,-126.6l109.6,-63.3m0,-1.1l-110.6,63.9l0,127.7l110.6,63.9l110.6,-63.9l0,-127.8l-110.6,-63.8l0,0z" id="svg_30"/>
  </g>
  <g id="svg_31">
   <polygon class="st0" points="798.8,463.6 798.8,336.4 908.9,272.8 1019.1,336.4 1019.1,463.6 908.9,527.2  " fill="#ffffff" id="svg_32"/>
   <path fill="#ffffff" d="m908.9,273.4l109.6,63.3l0,126.6l-109.6,63.3l-109.6,-63.3l0,-126.6l109.6,-63.3m0,-1.1l-110.6,63.9l0,127.7l110.6,63.9l110.6,-63.9l0,-127.8l-110.6,-63.8l0,0z" id="svg_33"/>
  </g>
  <g id="svg_34">
   <polygon class="st0" points="1026.1,463.6 1026.1,336.4 1136.2,272.8 1246.3,336.4 1246.3,463.6 1136.2,527.2  " fill="#ffffff" id="svg_35"/>
   <path fill="#ffffff" d="m1136.2,273.4l109.6,63.3l0,126.6l-109.6,63.3l-109.6,-63.3l0,-126.6l109.6,-63.3m0,-1.1l-110.6,63.9l0,127.7l110.6,63.9l110.6,-63.9l0,-127.8l-110.6,-63.8l0,0z" id="svg_36"/>
  </g>
  <g id="svg_37">
   <polygon class="st0" points="-110.1,863.6 -110.1,736.4 0,672.8 110.1,736.4 110.1,863.6 0,927.2  " fill="#ffffff" id="svg_38"/>
   <path fill="#ffffff" d="m0,673.4l109.6,63.3l0,126.6l-109.6,63.3l-109.6,-63.3l0,-126.6l109.6,-63.3m0,-1.1l-110.6,63.9l0,127.7l110.6,63.8l110.6,-63.9l0,-127.7l-110.6,-63.8l0,0z" id="svg_39"/>
  </g>
  <g id="svg_40">
   <polygon class="st0" points="117.1,863.6 117.1,736.4 227.2,672.8 337.4,736.4 337.4,863.6 227.2,927.2  " fill="#ffffff" id="svg_41"/>
   <path fill="#ffffff" d="m227.2,673.4l109.6,63.3l0,126.6l-109.6,63.3l-109.6,-63.3l0,-126.6l109.6,-63.3m0,-1.1l-110.6,63.9l0,127.7l110.6,63.9l110.6,-63.9l0,-127.8l-110.6,-63.8l0,0z" id="svg_42"/>
  </g>
  <g id="svg_43">
   <polygon class="st0" points="344.4,863.6 344.4,736.4 454.5,672.8 564.6,736.4 564.6,863.6 454.5,927.2  " fill="#ffffff" id="svg_44"/>
   <path fill="#ffffff" d="m454.5,673.4l109.6,63.3l0,126.6l-109.6,63.3l-109.6,-63.3l0,-126.6l109.6,-63.3m0,-1.1l-110.6,63.9l0,127.7l110.6,63.9l110.6,-63.9l0,-127.8l-110.6,-63.8l0,0z" id="svg_45"/>
  </g>
  <g id="svg_46">
   <polygon class="st0" points="571.6,863.6 571.6,736.4 681.7,672.8 791.8,736.4 791.8,863.6 681.7,927.2  " fill="#ffffff" id="svg_47"/>
   <path fill="#ffffff" d="m681.7,673.4l109.6,63.3l0,126.6l-109.6,63.3l-109.6,-63.3l0,-126.6l109.6,-63.3m0,-1.1l-110.6,63.9l0,127.7l110.6,63.9l110.6,-63.9l0,-127.8l-110.6,-63.8l0,0z" id="svg_48"/>
  </g>
  <g id="svg_49">
   <polygon class="st0" points="798.8,863.6 798.8,736.4 908.9,672.8 1019.1,736.4 1019.1,863.6 908.9,927.2  " fill="#ffffff" id="svg_50"/>
   <path fill="#ffffff" d="m908.9,673.4l109.6,63.3l0,126.6l-109.6,63.3l-109.6,-63.3l0,-126.6l109.6,-63.3m0,-1.1l-110.6,63.9l0,127.7l110.6,63.9l110.6,-63.9l0,-127.8l-110.6,-63.8l0,0z" id="svg_51"/>
  </g>
  <g id="svg_52">
   <polygon class="st0" points="1026.1,863.6 1026.1,736.4 1136.2,672.8 1246.3,736.4 1246.3,863.6 1136.2,927.2  " fill="#ffffff" id="svg_53"/>
   <path fill="#ffffff" d="m1136.2,673.4l109.6,63.3l0,126.6l-109.6,63.3l-109.6,-63.3l0,-126.6l109.6,-63.3m0,-1.1l-110.6,63.9l0,127.7l110.6,63.9l110.6,-63.9l0,-127.8l-110.6,-63.8l0,0z" id="svg_54"/>
  </g>
  <g id="svg_55">
   <polygon class="st0" points="3.5,664.6 3.5,537.4 113.6,473.8 223.7,537.4 223.7,664.6 113.6,728.1  " fill="#ffffff" id="svg_56"/>
   <path fill="#ffffff" d="m113.6,474.4l109.6,63.3l0,126.6l-109.6,63.3l-109.6,-63.3l0,-126.6l109.6,-63.3m0,-1.1l-110.6,63.8l0,127.7l110.6,63.9l110.6,-63.9l0,-127.7l-110.6,-63.8l0,0z" id="svg_57"/>
  </g>
  <g id="svg_58">
   <polygon class="st0" points="230.7,664.6 230.7,537.4 340.9,473.8 451,537.4 451,664.6 340.9,728.1  " fill="#ffffff" id="svg_59"/>
   <path fill="#ffffff" d="m340.9,474.4l109.6,63.3l0,126.6l-109.6,63.3l-109.6,-63.3l0,-126.6l109.6,-63.3m0,-1.1l-110.6,63.9l0,127.7l110.6,63.9l110.6,-63.9l0,-127.8l-110.6,-63.8l0,0z" id="svg_60"/>
  </g>
  <g id="svg_61">
   <polygon class="st0" points="458,664.6 458,537.4 568.1,473.8 678.2,537.4 678.2,664.6 568.1,728.1  " fill="#ffffff" id="svg_62"/>
   <path fill="#ffffff" d="m568.1,474.4l109.6,63.3l0,126.6l-109.6,63.3l-109.6,-63.3l0,-126.6l109.6,-63.3m0,-1.1l-110.6,63.9l0,127.7l110.6,63.9l110.6,-63.9l0,-127.8l-110.6,-63.8l0,0z" id="svg_63"/>
  </g>
  <g id="svg_64">
   <polygon class="st0" points="685.2,664.6 685.2,537.4 795.3,473.8 905.4,537.4 905.4,664.6 795.3,728.1  " fill="#ffffff" id="svg_65"/>
   <path fill="#ffffff" d="m795.3,474.4l109.6,63.3l0,126.6l-109.6,63.3l-109.6,-63.3l0,-126.6l109.6,-63.3m0,-1.1l-110.6,63.9l0,127.7l110.6,63.9l110.6,-63.9l0,-127.8l-110.6,-63.8l0,0z" id="svg_66"/>
  </g>
  <g id="svg_67">
   <polygon class="st0" points="912.4,664.6 912.4,537.4 1022.6,473.8 1132.7,537.4 1132.7,664.6 1022.6,728.1  " fill="#ffffff" id="svg_68"/>
   <path fill="#ffffff" d="m1022.6,474.4l109.6,63.3l0,126.6l-109.6,63.3l-109.6,-63.3l0,-126.6l109.6,-63.3m0,-1.1l-110.6,63.9l0,127.7l110.6,63.9l110.6,-63.9l0,-127.8l-110.6,-63.8l0,0z" id="svg_69"/>
  </g>
  <g id="svg_70">
   <polygon class="st0" points="3.5,263.5 3.5,136.4 113.6,72.8 223.7,136.4 223.7,263.5 113.6,327.1  " fill="#ffffff" id="svg_71"/>
   <path fill="#ffffff" d="m113.6,73.4l109.6,63.3l0,126.6l-109.6,63.3l-109.6,-63.4l0,-126.5l109.6,-63.3m0,-1.2l-110.6,63.9l0,127.7l110.6,63.9l110.6,-63.9l0,-127.7l-110.6,-63.9l0,0z" id="svg_72"/>
  </g>
  <g id="svg_73">
   <polygon class="st0" points="230.7,263.5 230.7,136.4 340.9,72.8 451,136.4 451,263.5 340.9,327.1  " fill="#ffffff" id="svg_74"/>
   <path fill="#ffffff" d="m340.9,73.4l109.6,63.3l0,126.6l-109.6,63.3l-109.6,-63.3l0,-126.6l109.6,-63.3m0,-1.2l-110.6,63.9l0,127.7l110.6,63.9l110.6,-63.9l0,-127.7l-110.6,-63.9l0,0z" id="svg_75"/>
  </g>
  <g id="svg_76">
   <polygon class="st0" points="458,263.5 458,136.4 568.1,72.8 678.2,136.4 678.2,263.5 568.1,327.1  " fill="#ffffff" id="svg_77"/>
   <path fill="#ffffff" d="m568.1,73.4l109.6,63.3l0,126.6l-109.6,63.3l-109.6,-63.3l0,-126.6l109.6,-63.3m0,-1.2l-110.6,63.9l0,127.7l110.6,63.9l110.6,-63.9l0,-127.7l-110.6,-63.9l0,0z" id="svg_78"/>
  </g>
  <g id="svg_79">
   <polygon class="st0" points="685.2,263.5 685.2,136.4 795.3,72.8 905.4,136.4 905.4,263.5 795.3,327.1  " fill="#ffffff" id="svg_80"/>
   <path fill="#ffffff" d="m795.3,73.4l109.6,63.3l0,126.6l-109.6,63.3l-109.6,-63.3l0,-126.6l109.6,-63.3m0,-1.2l-110.6,63.9l0,127.7l110.6,63.9l110.6,-63.9l0,-127.7l-110.6,-63.9l0,0z" id="svg_81"/>
  </g>
  <g id="svg_82">
   <polygon class="st0" points="912.4,263.5 912.4,136.4 1022.6,72.8 1132.7,136.4 1132.7,263.5 1022.6,327.1  " fill="#ffffff" id="svg_83"/>
   <path fill="#ffffff" d="m1022.6,73.4l109.6,63.3l0,126.6l-109.6,63.3l-109.6,-63.3l0,-126.6l109.6,-63.3m0,-1.2l-110.6,63.9l0,127.7l110.6,63.9l110.6,-63.9l0,-127.7l-110.6,-63.9l0,0z" id="svg_84"/>
  </g>
 </g>

</svg>